<?xml version="1.0" encoding="utf-8"?>
<!-- Generator: Adobe Illustrator 26.0.3, SVG Export Plug-In . SVG Version: 6.00 Build 0)  -->
<svg version="1.1" id="分離模式" xmlns="http://www.w3.org/2000/svg" xmlns:xlink="http://www.w3.org/1999/xlink" x="0px"
	 y="0px" viewBox="0 0 110 50" style="enable-background:new 0 0 110 50;" xml:space="preserve">
<style type="text/css">
	.st0{fill:#FF4848;}
	.st1{fill:#231815;}
</style>
<path class="st0" d="M30.79,14.3l-2.1,5.2c-0.6,1.6-2.3,2.4-3.9,2.1c-1.8-0.4-4.2-0.6-5.9,0.2c-3.1,1.6-3.5,6.6-0.4,7.5
	c2.2,0.7,6.2-0.3,8.4-1c1.5-0.4,3.1,0.2,3.9,1.5l1.5,4.3c1.1,1.8,0.7,3-1.1,4.1c-3.8,2.2-12,5.5-19.6,0.6
	c-11.7-7.5-7.1-27.7,5.3-29.6c5.9-0.9,9.6-0.4,11.8,0.3C30.59,10.3,31.59,12.5,30.79,14.3z"/>
<path class="st0" d="M46.47,10.58c-0.56-0.7-1.18-1.24-1.88-1.64c-0.91-0.52-1.89-0.74-2.86-0.63c-1.54,0.01-2.85,0.58-3.8,1.65
	c-0.85,0.99-1.33,2.08-1.44,3.26c-0.11,1.2,0.17,2.4,0.86,3.65c0.71,1.06,1.88,1.92,3.13,2.3c0.43,0.14,0.81,0.21,1.21,0.21
	c0.22,0,0.45-0.02,0.7-0.07c0.65-0.02,1.25-0.26,1.84-0.5c0.63-0.31,1.15-0.68,1.54-1.06C47.77,15.86,48.08,12.8,46.47,10.58z"/>
<path class="st0" d="M47.14,21.89c-0.2-0.69-0.8-1.31-1.64-1.64c-0.72-0.24-1.42-0.35-2.22-0.35c-0.93,0-1.81,0-2.8,0.22
	c-0.57,0.11-1.11,0.32-1.62,0.53c-0.62,0.18-1.15,0.64-1.51,1.38c-0.23,0.58-0.34,1.13-0.46,1.71c-0.06,0.36-0.09,0.75-0.12,1.2
	c-0.02,0.32-0.04,0.67-0.09,1.05c0,0.04-0.01,0.07-0.01,0.11c0,0.42-0.02,0.87-0.05,1.32c-0.03,0.52-0.05,1.05-0.05,1.58v3.1
	c0,1,0,2.25,0.1,3.28l0.08,1.04c0.06,0.74,0.11,1.33,0.11,1.78c0,0.75,0.18,1.41,0.54,2.01c0.04,0.07,0.09,0.13,0.15,0.19
	c0.5,0.5,1.25,0.79,2.01,0.79h2.8c0.04,0,0.08,0,0.12-0.01c0.33-0.04,0.63-0.06,0.9-0.09c0.41-0.03,0.76-0.06,1.13-0.14
	c0.47-0.12,1.06-0.27,1.56-0.76c0.44-0.44,0.69-1.15,0.76-1.36c0.15-0.59,0.22-1.1,0.23-1.57l0.05-0.41
	c0.08-0.6,0.15-1.11,0.15-1.65c0-0.57,0-1.12,0.09-1.63c0.11-0.68,0.11-1.32,0.11-2.06v-6.75C47.59,23.75,47.48,22.81,47.14,21.89z"
	/>
<path class="st0" d="M30.79,14.3l-2.1,5.2c-0.6,1.6-2.3,2.4-3.9,2.1c-1.8-0.4-4.2-0.6-5.9,0.2c-3.1,1.6-3.5,6.6-0.4,7.5
	c2.2,0.7,6.2-0.3,8.4-1c1.5-0.4,3.1,0.2,3.9,1.5l1.5,4.3c1.1,1.8,0.7,3-1.1,4.1c-3.8,2.2-12,5.5-19.6,0.6
	c-11.7-7.5-7.1-27.7,5.3-29.6c5.9-0.9,9.6-0.4,11.8,0.3C30.59,10.3,31.59,12.5,30.79,14.3z"/>
<g>
	<path class="st1" d="M52.87,22.69h0.59c0.88,0,1.6,0.72,1.6,1.6v8.48c0.05,1.27,0.11,2.11,0.16,2.53c0.12,0.82,0.52,1.38,1.18,1.68
		s1.83,0.44,3.5,0.44h2.06c0.88,0,1.6,0.72,1.6,1.6l0,0c0,0.88-0.72,1.6-1.6,1.6H59.5c-1.92,0-3.31-0.11-4.16-0.32
		c-1.97-0.57-3.23-1.83-3.76-3.76c-0.2-0.75-0.3-2.01-0.3-3.76V24.3C51.27,23.41,51.99,22.69,52.87,22.69z"/>
	<path class="st1" d="M65.79,39.02V24.29c0-0.88,0.72-1.6,1.6-1.6H68c0.88,0,1.6,0.72,1.6,1.6v14.73c0,0.88-0.72,1.6-1.6,1.6h-0.62
		C66.5,40.62,65.79,39.9,65.79,39.02z"/>
	<path class="st1" d="M89.67,24.93l-6.61,15.11c-0.15,0.35-0.5,0.58-0.89,0.58h-2.54c-0.39,0-0.74-0.23-0.89-0.59l-6.37-15.11
		c-0.44-1.05,0.33-2.22,1.47-2.22h0.8c0.66,0,1.25,0.4,1.49,1.02l3.98,10.18c0.32,0.82,1.48,0.82,1.81,0l4.04-10.19
		c0.24-0.61,0.83-1.01,1.49-1.01h0.77C89.36,22.69,90.13,23.88,89.67,24.93z"/>
	<path class="st1" d="M105.97,24.29L105.97,24.29c0,0.88-0.72,1.6-1.6,1.6H101c-1.29,0-2.23,0.09-2.82,0.27s-1.08,0.53-1.48,1.05
		c-0.27,0.36-0.45,0.72-0.55,1.08c-0.1,0.36-0.18,0.97-0.25,1.83h8.48c0.88,0,1.6,0.72,1.6,1.6l0,0c0,0.88-0.72,1.6-1.6,1.6H95.9
		c0.14,1.54,0.6,2.61,1.37,3.21c0.77,0.6,2.08,0.9,3.92,0.9h3.19c0.88,0,1.6,0.72,1.6,1.6l0,0c0,0.88-0.72,1.6-1.6,1.6H101
		c-1.34,0-2.53-0.08-3.55-0.24c-1.61-0.27-2.89-0.98-3.84-2.12c-1.36-1.65-2.04-3.88-2.04-6.69c0-3.12,0.96-5.55,2.88-7.28
		c0.66-0.59,1.37-1,2.11-1.24c0.74-0.23,1.74-0.35,3-0.35h4.83C105.26,22.69,105.97,23.41,105.97,24.29z"/>
</g>
</svg>
