<?xml version="1.0" encoding="utf-8"?>
<!-- Generator: Adobe Illustrator 26.0.3, SVG Export Plug-In . SVG Version: 6.00 Build 0)  -->
<svg version="1.1" id="China_Flag_Glossy_Button" xmlns="http://www.w3.org/2000/svg" xmlns:xlink="http://www.w3.org/1999/xlink"
	 x="0px" y="0px" viewBox="0 0 50 50" style="enable-background:new 0 0 50 50;" xml:space="preserve">
<style type="text/css">
	.st0{fill:url(#SVGID_1_);}
	.st1{fill:#0000B3;}
	.st2{fill:#FEFEFE;}
	.st3{opacity:0.4;fill:url(#SVGID_00000083080367976068295340000002895795924658689952_);enable-background:new    ;}
</style>
<g>
	
		<radialGradient id="SVGID_1_" cx="25" cy="814.89" r="25" gradientTransform="matrix(1 0 0 1 0 -789.89)" gradientUnits="userSpaceOnUse">
		<stop  offset="0" style="stop-color:#FF0000"/>
		<stop  offset="0.4534" style="stop-color:#FD0000"/>
		<stop  offset="0.6168" style="stop-color:#F60101"/>
		<stop  offset="0.7332" style="stop-color:#EB0101"/>
		<stop  offset="0.8273" style="stop-color:#DA0302"/>
		<stop  offset="0.9079" style="stop-color:#C40404"/>
		<stop  offset="0.978" style="stop-color:#A90605"/>
		<stop  offset="1" style="stop-color:#9F0706"/>
	</radialGradient>
	<circle class="st0" cx="25" cy="25" r="25"/>
	<g>
		<path class="st1" d="M37.5,3.4C33.8,1.2,29.6,0,25,0C11.2,0,0,11.2,0,25h37.5V3.4z"/>
		<g>
			<circle class="st2" cx="18.8" cy="12.5" r="4.8"/>
			<g>
				<path class="st2" d="M19.9,7.4l-1.1-4l-1.1,4c0.4-0.1,0.7-0.1,1.1-0.1C19.1,7.2,19.5,7.3,19.9,7.4z"/>
				<path class="st2" d="M17.2,7.5l-3-2.9l1,4.1C15.8,8.1,16.4,7.7,17.2,7.5z"/>
				<path class="st2" d="M14.9,9l-4.1-1l2.9,3C14,10.2,14.4,9.5,14.9,9z"/>
				<path class="st2" d="M13.5,12.5c0-0.4,0-0.8,0.1-1.1l-4,1.1l4,1.1C13.5,13.3,13.5,12.9,13.5,12.5z"/>
				<path class="st2" d="M13.7,14.1l-2.9,3l4.1-1C14.4,15.5,14,14.8,13.7,14.1z"/>
				<path class="st2" d="M14.2,20.4l3-2.9c-0.7-0.2-1.4-0.6-1.9-1.1L14.2,20.4z"/>
				<path class="st2" d="M17.6,17.6l1.1,4l1.1-4c-0.4,0.1-0.7,0.1-1.1,0.1S18,17.7,17.6,17.6z"/>
				<path class="st2" d="M20.3,17.5l3,2.9l-1-4.1C21.7,16.9,21.1,17.3,20.3,17.5z"/>
				<path class="st2" d="M22.6,16l4.1,1l-2.9-3C23.5,14.8,23.1,15.5,22.6,16z"/>
				<path class="st2" d="M27.9,12.5l-4-1.1c0.1,0.4,0.1,0.7,0.1,1.1c0,0.4,0,0.8-0.1,1.1L27.9,12.5z"/>
				<path class="st2" d="M23.8,10.9l2.9-3l-4.1,1C23.1,9.5,23.5,10.2,23.8,10.9z"/>
				<path class="st2" d="M23.3,4.6l-3,2.9c0.7,0.2,1.4,0.6,1.9,1.1L23.3,4.6z"/>
			</g>
		</g>
	</g>
</g>
<linearGradient id="SVGID_00000045583156416078466540000017678346852043238073_" gradientUnits="userSpaceOnUse" x1="0.7073" y1="75.0725" x2="0.975" y2="49.5068" gradientTransform="matrix(1.0985 0 0 -1.0588 24.0768 81.6296)">
	<stop  offset="0" style="stop-color:#F6F6F6"/>
	<stop  offset="0.8239" style="stop-color:#FDFDFD;stop-opacity:0.1761"/>
	<stop  offset="1" style="stop-color:#FFFFFF;stop-opacity:0"/>
</linearGradient>
<ellipse style="opacity:0.4;fill:url(#SVGID_00000045583156416078466540000017678346852043238073_);enable-background:new    ;" cx="25" cy="15.6" rx="19.2" ry="13.6"/>
</svg>
