<?xml version="1.0" encoding="utf-8"?>
<!-- Generator: Adobe Illustrator 24.2.3, SVG Export Plug-In . SVG Version: 6.00 Build 0)  -->
<svg version="1.1" id="圖層_1" xmlns="http://www.w3.org/2000/svg" xmlns:xlink="http://www.w3.org/1999/xlink" x="0px" y="0px"
	 viewBox="0 0 25 25" style="enable-background:new 0 0 25 25;" xml:space="preserve">
<style type="text/css">
	.st0{clip-path:url(#SVGID_2_);fill:url(#SVGID_3_);}
	.st1{clip-path:url(#SVGID_2_);fill:#151111;enable-background:new    ;}
	.st2{clip-path:url(#SVGID_2_);}
	.st3{fill:#151111;}
	.st4{opacity:0.2;clip-path:url(#SVGID_2_);fill:#FFFFFF;}
</style>
<g>
	<defs>
		<circle id="SVGID_1_" cx="12.5" cy="12.5" r="12.6"/>
	</defs>
	<clipPath id="SVGID_2_">
		<use xlink:href="#SVGID_1_"  style="overflow:visible;"/>
	</clipPath>
	<radialGradient id="SVGID_3_" cx="12.4355" cy="11.0161" r="12.625" fx="4.8788" fy="11.0061" gradientUnits="userSpaceOnUse">
		<stop  offset="0.4347" style="stop-color:#F7F7F7"/>
		<stop  offset="0.5306" style="stop-color:#EDEDED"/>
		<stop  offset="0.6952" style="stop-color:#D1D1D1"/>
		<stop  offset="0.9073" style="stop-color:#A5A5A5"/>
		<stop  offset="1" style="stop-color:#8F8F8F"/>
	</radialGradient>
	<circle class="st0" cx="12.5" cy="12.5" r="12.6"/>
	<polygon class="st1" points="7.9,10.8 12.2,7.5 17.1,10.4 15.6,16.1 9.9,16.3 	"/>
	<polygon class="st1" points="7.9,-2.4 12.2,-5.7 17.1,-2.7 15.6,2.9 9.9,3.1 	"/>
	<g class="st2">
		<polygon class="st3" points="1.7,20.7 2.9,18.9 8,18.9 9.6,23.4 8.7,26.2 1.1,21.6 		"/>
		<polygon class="st3" points="23.3,20.7 22.1,18.9 17,18.9 15.4,23.4 16.3,26.2 23.9,21.6 		"/>
	</g>
	<g class="st2">
		<polygon class="st3" points="-1.4,11.3 0.5,12.3 4.9,9.7 4,4.9 1.8,3.1 -2.4,10.8 		"/>
	</g>
	<g class="st2">
		<polygon class="st3" points="26.5,11.4 24.6,12.4 20.2,9.8 21.1,5 23.4,3.1 27.5,10.9 		"/>
	</g>
	<circle class="st4" cx="12.5" cy="-0.1" r="12.6"/>
</g>
</svg>
