<?xml version="1.0" encoding="utf-8"?>
<!-- Generator: Adobe Illustrator 22.0.1, SVG Export Plug-In . SVG Version: 6.00 Build 0)  -->
<svg version="1.1" id="圖層_1" xmlns="http://www.w3.org/2000/svg" xmlns:xlink="http://www.w3.org/1999/xlink" x="0px" y="0px"
	 viewBox="0 0 25 25" style="enable-background:new 0 0 25 25;" xml:space="preserve">
<style type="text/css">
	.st0{fill:url(#SVGID_1_);}
	.st1{fill:#934D1B;}
	.st2{fill:none;}
</style>
<g>
	<title>icon_basketball_20211013</title>
	
		<radialGradient id="SVGID_1_" cx="12.5" cy="776.53" r="12.5" gradientTransform="matrix(1 0 0 1 0 -764)" gradientUnits="userSpaceOnUse">
		<stop  offset="0" style="stop-color:#FBA151"/>
		<stop  offset="1" style="stop-color:#D16B24"/>
	</radialGradient>
	<circle class="st0" cx="12.5" cy="12.5" r="12.5"/>
	<path class="st1" d="M21.7,21c-0.1,0-0.1,0-0.1-0.1l0,0c-2.2-2.6-5.3-4.1-8.7-4.1h-0.8c-3.3,0.1-6.4,1.6-8.6,4.1L3.4,21
		c-0.2-0.1-0.4-0.3-0.5-0.6c2.3-2.8,5.7-4.4,9.3-4.4H13c3.6,0.2,6.9,1.8,9.3,4.4C22.1,20.5,21.9,20.8,21.7,21"/>
	<path class="st1" d="M12.9,9.1h-0.8C8.8,9,5.6,7.7,3.3,5.3C3.1,5.2,2.9,5,2.8,4.7C2.9,4.5,3.1,4.2,3.3,4c0,0.1,0,0.1,0.1,0.1
		c2.2,2.6,5.3,4.1,8.7,4.2h0.8c3.3-0.2,6.5-1.7,8.7-4.2L21.8,4c0.2,0.2,0.4,0.5,0.5,0.7C19.9,7.4,16.5,9,12.9,9.1"/>
	<polygon class="st1" points="25,12.9 12.9,12.9 12,12.9 0,12.9 0,12.5 0,12.1 12.1,12.1 13,12.1 25,12.1 25,12.5 25,12.6 	"/>
	<polygon class="st1" points="12.9,25 12.9,25 12.5,25 12.1,25 12.1,16.7 12.1,15.8 12.1,12.9 12.1,12 12.1,9.1 12.1,8.3 12.1,0 
		12.5,0 12.9,0 12.9,8.3 12.9,9.2 12.9,12.1 12.9,13 12.9,15.9 12.9,16.8 	"/>
	<rect class="st2" width="25" height="25"/>
</g>
</svg>
