<?xml version="1.0" encoding="utf-8"?>
<!-- Generator: Adobe Illustrator 22.0.1, SVG Export Plug-In . SVG Version: 6.00 Build 0)  -->
<svg version="1.1" id="圖層_1" xmlns="http://www.w3.org/2000/svg" xmlns:xlink="http://www.w3.org/1999/xlink" x="0px" y="0px"
     width="50px" height="50px" viewBox="0 0 50 50" style="enable-background:new 0 0 50 50;" xml:space="preserve">
<style type="text/css">
	.st0{fill:#FFFFFF;}
</style>
    <g>
	<path class="st0" d="M24.7,24.1c3.3,0,6.2-1.2,8.5-3.5c2.3-2.3,3.5-5.2,3.5-8.5c0-3.3-1.2-6.2-3.5-8.5C30.9,1.2,28,0,24.7,0
		c-3.3,0-6.2,1.2-8.5,3.5s-3.5,5.2-3.5,8.5c0,3.3,1.2,6.2,3.5,8.5C18.5,22.9,21.4,24.1,24.7,24.1z"/>
        <path class="st0" d="M45.8,38.4c-0.1-1-0.2-2-0.4-3.2c-0.2-1.1-0.5-2.2-0.8-3.2c-0.3-1-0.8-2-1.3-3c-0.6-1-1.2-1.9-2-2.6
		c-0.8-0.7-1.7-1.3-2.8-1.8c-1.1-0.4-2.3-0.7-3.6-0.7c-0.5,0-1,0.2-2,0.8c-0.6,0.4-1.3,0.8-2,1.3c-0.7,0.4-1.5,0.8-2.6,1.2
		C27.2,27.8,26.1,28,25,28s-2.2-0.2-3.2-0.5c-1.1-0.4-2-0.7-2.6-1.2c-0.8-0.5-1.4-0.9-2-1.3c-1-0.6-1.4-0.8-2-0.8
		c-1.3,0-2.5,0.2-3.6,0.7c-1.1,0.4-2.1,1-2.8,1.8c-0.7,0.7-1.4,1.6-2,2.6c-0.5,1-1,2-1.3,3c-0.3,1-0.6,2-0.8,3.2
		c-0.2,1.1-0.3,2.2-0.4,3.2c-0.1,1-0.1,1.9-0.1,3c0,2.6,0.8,4.7,2.5,6.3C8.2,49.2,10.4,50,13,50H37c2.6,0,4.7-0.8,6.4-2.3
		c1.6-1.6,2.5-3.7,2.5-6.3C45.9,40.4,45.8,39.4,45.8,38.4z"/>
</g>
</svg>
