<?xml version="1.0" encoding="utf-8"?>
<!-- Generator: Adobe Illustrator 26.0.3, SVG Export Plug-In . SVG Version: 6.00 Build 0)  -->
<svg version="1.1" id="OBJECTS" xmlns="http://www.w3.org/2000/svg" xmlns:xlink="http://www.w3.org/1999/xlink" x="0px" y="0px"
     viewBox="0 0 50 50" style="enable-background:new 0 0 50 50;" xml:space="preserve">
<style type="text/css">
	.st0{fill:url(#SVGID_1_);}
	.st1{fill:#E05F35;}
</style>
    <g>

		<linearGradient id="SVGID_1_" gradientUnits="userSpaceOnUse" x1="-0.2702" y1="1623.1897" x2="43.44" y2="1603.355" gradientTransform="matrix(1 0 0 1 0 -1584)">
		<stop  offset="0" style="stop-color:#EFAB00"/>
            <stop  offset="0.5536" style="stop-color:#F4DF00"/>
            <stop  offset="1" style="stop-color:#EFAB00"/>
	</linearGradient>
        <path class="st0" d="M46.2,18.7c-2.8-3.4-6.5-4-10.6-2.7c-0.2,0.1-0.3,0.1-0.5,0.1c-1-0.6-2.3-1-4-1c0,0-2.1-0.2-3.8,0.3
		c-0.1,0-0.2,0-0.3,0c-0.3-0.8-0.7-2.1-1.3-4c2.2,0.7,3.9,1.2,5.6,1.7c0-2,0-3.9,0-6c-1.7,0.5-3.3,1-5.5,1.7C26.5,6.6,27,5,27.5,3.3
		c-0.7,0-1.4,0-2,0c-0.4,0-0.7,0-1.1,0c-0.7,0-1.3,0-2,0c0.5,1.7,1,3.3,1.7,5.5C21.9,8,20.3,7.5,18.6,7c0,2.1,0,4,0,6
		c1.7-0.5,3.3-1,5.6-1.7c-0.6,1.9-1,3.2-1.3,4c-0.1,0-0.2,0-0.3,0c-1.7-0.5-3.8-0.3-3.8-0.3c-1.7,0.1-3,0.5-4,1
		c-0.2,0-0.3,0-0.5-0.1c-4.1-1.4-7.8-0.8-10.6,2.7c-3,3.7-3.5,7.9-1.2,12.1c1.1,2.1,2.8,3.9,4.2,5.8c1.1,1.5,2.1,3,3.3,4.9
		c4.8,0,9.6,0,14.5,0c0.4,0,0.7,0,1.1,0c4.9,0,9.8,0,14.5,0c1.2-1.8,2.3-3.4,3.3-4.9c1.4-1.9,3-3.7,4.2-5.8
		C49.7,26.6,49.2,22.4,46.2,18.7z M15.3,37.3c-0.6,0.9-2.3-0.2-3.5-1.4c-2.5-2.5-4.1-4.8-5.8-8c-2.1-3.9,1.2-9,5.4-8.1
		C8.9,26.2,13,30.4,15.3,36C15.4,36.5,15.4,37,15.3,37.3z M43.7,28c-1.7,3.1-3.3,5.4-5.8,8c-1.2,1.2-3,2.3-3.5,1.4
		c-0.2-0.3-0.1-0.8,0-1.2c2.3-5.7,6.4-9.8,3.9-16.2C42.5,19,45.8,24.1,43.7,28z M9.5,43h30.1v3.7H9.5V43z"/>
        <g>
		<path class="st1" d="M23.2,24.7h-1.9V23c1.7-0.6,3.6-1.2,5.7-2.2V34h1.5v2.2h-6.9V34h1.7L23.2,24.7C23.3,24.7,23.2,24.7,23.2,24.7
			z"/>
	</g>
</g>
</svg>
