<?xml version="1.0" encoding="utf-8"?>
<!-- Generator: Adobe Illustrator 26.0.3, SVG Export Plug-In . SVG Version: 6.00 Build 0)  -->
<svg version="1.1" id="圖層_1" xmlns="http://www.w3.org/2000/svg" xmlns:xlink="http://www.w3.org/1999/xlink" x="0px" y="0px"
     viewBox="0 0 50 50" style="enable-background:new 0 0 50 50;" xml:space="preserve">
<style type="text/css">
	.st0{fill-rule:evenodd;clip-rule:evenodd;fill:#F78B9D;}
	.st1{fill-rule:evenodd;clip-rule:evenodd;fill:#FDF3F5;}
	.st2{fill-rule:evenodd;clip-rule:evenodd;fill:#FFD438;}
	.st3{fill-rule:evenodd;clip-rule:evenodd;fill:#F2BF33;}
	.st4{enable-background:new    ;}
	.st5{fill:#FFFFFF;}
</style>
    <g>
	<g>
		<path class="st0" d="M42.9,13.1c-5.1-2.6-12.4-0.3-14.7,5.8c-0.4,1-0.3,1-0.8-0.1c-1.9-4.7-7.5-7.3-12.3-6.6
			C9.8,13,6.5,17.6,6.2,22.7C5.5,34,24.4,45.8,27.9,45.8c3,0,21.2-12.6,21-22.4C48.8,19.1,47,15.1,42.9,13.1L42.9,13.1z"/>
        <path class="st1" d="M15.9,13.9c0.3-0.3,0.9-0.3,1.3-0.2s0.5,0.3,0.5,0.5s0,0.5-0.3,0.7s-0.9,0.2-1.3,0
			C15.7,14.7,15.6,14.2,15.9,13.9L15.9,13.9z M12.7,17.3c-0.8,0.7-1.5,1.5-2.2,2.5s-1.3,2.1-1.8,2.7C8.2,23,7.9,22.8,8,22
			c0-0.9,0.4-2.5,1.3-3.9c0.9-1.4,2.4-2.7,3.5-3.2c1.1-0.4,1.7-0.1,1.7,0.5C14.3,15.9,13.5,16.6,12.7,17.3L12.7,17.3z"/>
	</g>
        <g>
		<path class="st2" d="M12.2,11.5c-0.7,0.4-5.3,2.8-5.9,1.9c-1.1-1.7-2.7-3.5-3.6-4.7c-1-1.3-1.4-1.8,0.8-1.2C4.7,7.9,6.2,8.4,7,8.2
			c-0.1-3-1.1-5.8-0.5-6C6.9,2,10.9,5.4,11.6,6c0.9-3.3,1.2-6.6,2.1-3.6c0.7,2.2,1.4,3.3,2.2,5.5C16.3,9.1,13.1,11,12.2,11.5
			L12.2,11.5z"/>
            <path class="st3" d="M12.2,11.5c-0.7,0.4-5.3,2.8-5.9,1.9C6,12.9,5.4,12.2,6,12.1c3.8-1,5.4-2.3,6.6-3.2c1.7-1.3,1.1-1.8,1-2.9
			c0-0.3-0.9-5.1-0.3-4.6c0.2,0.2,0.4,0.8,0.5,1.1C14.5,4.7,15.2,5.8,16,8C16.3,9.1,13.1,11,12.2,11.5L12.2,11.5z"/>
	</g>
</g>
    <g id="Layer_1">
</g>
    <g class="st4">
	<path class="st5" d="M27.6,37.3h-9.3v-2h3.3V24.1L18.2,25v-2.1l5.8-1.5v14.1h3.3L27.6,37.3L27.6,37.3z"/>
        <path class="st5" d="M28.1,29.7c0-2.7,0.4-4.9,1.5-6.2c0.9-1.5,2.3-2.1,4.1-2.1c3.3,0,5.1,2.7,5.1,8c0,2.7-0.4,4.6-1.5,6
		c-0.9,1.5-2.3,2.1-4.1,2.1c-1.7,0-3-0.6-3.9-2C28.6,34.2,28.1,32.3,28.1,29.7z M30.5,29.7c0,4,0.9,5.9,2.8,5.9
		c1.9,0,2.8-2.1,2.8-6.1c0-4.2-0.9-6.2-2.7-6.2C31.5,23.4,30.5,25.5,30.5,29.7z"/>
</g>
</svg>
